<?xml version="1.0" encoding="utf-8"?>
<!-- Generator: Adobe Illustrator 24.3.0, SVG Export Plug-In . SVG Version: 6.00 Build 0)  -->
<svg version="1.1" xmlns="http://www.w3.org/2000/svg" xmlns:xlink="http://www.w3.org/1999/xlink" x="0px" y="0px" width="820px"
	 height="399.953px" viewBox="0 0 820 399.953" style="enable-background:new 0 0 820 399.953;" xml:space="preserve">
<style type="text/css">
	.st0{display:none;}
	.st1{display:inline;}
	.st2{opacity:0.95;fill:#1CD0BB;}
	.st3{display:inline;fill:#318DDE;}
	.st4{display:inline;fill:#F540DA;}
	.st5{display:inline;fill:#80BC00;}
	.st6{display:inline;fill:#B800E3;}
	.st7{display:inline;fill:#00A9D7;}
	.st8{display:inline;fill:#FFA400;}
	.st9{clip-path:url(#SVGID_2_);}
	.st10{clip-path:url(#SVGID_4_);}
	.st11{display:inline;opacity:0.3;fill:#00A8D6;}
	.st12{display:inline;fill:#1CD0BB;}
	.st13{display:inline;fill:#FF414E;}
	.st14{fill:#318DDE;}
	.st15{fill:#F540DA;}
	.st16{fill:#80BC00;}
	.st17{fill:#B800E3;}
	.st18{fill:#00A9D7;}
	.st19{fill:#FFA400;}
	.st20{fill:#1CD0BB;}
	.st21{fill:#FF414E;}
	.st22{fill:none;stroke:#333333;stroke-width:4.0306;stroke-linejoin:round;}
	.st23{fill:#333333;}
	.st24{display:inline;fill:#333333;}
	.st25{fill:none;stroke:#333333;stroke-width:4.1021;stroke-miterlimit:10;}
	.st26{fill:none;stroke:url(#SVGID_7_);stroke-width:3.2105;stroke-miterlimit:10;stroke-dasharray:8.333,4.0627;}
	.st27{fill:none;stroke:url(#SVGID_8_);stroke-width:3;stroke-miterlimit:10;}
	.st28{fill:none;stroke:url(#SVGID_9_);stroke-width:3;stroke-miterlimit:10;stroke-dasharray:3.8338,3.8712;}
	.st29{fill:none;stroke:url(#SVGID_10_);stroke-width:3;stroke-miterlimit:10;}
	.st30{fill:none;stroke:url(#SVGID_11_);stroke-width:3;stroke-miterlimit:10;}
	.st31{fill:none;stroke:url(#SVGID_12_);stroke-width:3;stroke-miterlimit:10;stroke-dasharray:7.6283,3.8513;}
	.st32{fill:none;stroke:url(#SVGID_13_);stroke-width:3;stroke-miterlimit:10;}
	.st33{fill:none;stroke:url(#SVGID_14_);stroke-width:3;stroke-miterlimit:10;}
	.st34{fill:none;stroke:url(#SVGID_15_);stroke-width:3;stroke-miterlimit:10;stroke-dasharray:1.9059,3.8493;}
	.st35{fill:none;stroke:url(#SVGID_16_);stroke-width:3;stroke-miterlimit:10;}
	.st36{fill:none;stroke:url(#SVGID_17_);stroke-width:3.2105;stroke-miterlimit:10;stroke-dasharray:8.2804,4.037;}
	.st37{fill:none;stroke:#333333;stroke-width:4;stroke-miterlimit:10;}
	.st38{fill:#FFFFFF;}
	.st39{font-family:'Gotham-Medium';}
	.st40{font-size:12.9564px;}
	.st41{font-family:'Gotham-Black';}
	.st42{font-size:15px;}
	.st43{display:inline;fill:none;stroke:url(#SVGID_18_);stroke-width:2.1384;stroke-miterlimit:10;}
	.st44{fill:#FFFFFF;stroke:#333333;stroke-width:2;stroke-linejoin:round;stroke-miterlimit:10;}
	.st45{fill:none;stroke:#333333;stroke-width:2;stroke-linejoin:round;stroke-miterlimit:10;}
	.st46{fill:none;stroke:#333333;stroke-width:2;stroke-linecap:round;stroke-linejoin:round;stroke-miterlimit:10;}
	.st47{fill:url(#SVGID_19_);}
</style>
<g id="Layer_1_copy_2" class="st0">
	<g class="st1">
		<rect x="0.483" y="6.775" class="st2" width="268.937" height="83.101"/>
		<rect x="275.691" y="6.775" class="st2" width="268.937" height="83.101"/>
		<rect x="550.905" y="6.775" class="st2" width="268.937" height="83.101"/>
	</g>
	<rect x="0.483" y="185.677" class="st3" width="820" height="83.101"/>
	<g class="st1">
		<text transform="matrix(1 0 0 1 334.8269 233.7891)" class="st38 st39 st40">Operating system</text>
	</g>
	<rect x="0.483" y="95.891" class="st7" width="820" height="83.101"/>
	<g class="st1">
		<text transform="matrix(1 0 0 1 334.989 144.0029)" class="st38 st39 st40">Container engine</text>
	</g>
	<g class="st1">
		<text transform="matrix(1 0 0 1 35.1648 54.2168)" class="st38 st39 st40">Application 1</text>
	</g>
	<g class="st1">
		<text transform="matrix(1 0 0 1 322.5193 53.2192)" class="st38 st39 st40">Application 2</text>
	</g>
	<g class="st1">
		<text transform="matrix(1 0 0 1 584.8167 53.2192)" class="st38 st39 st40">Application n</text>
	</g>
	<g class="st1">
		<text transform="matrix(1 0 0 1 331.446 376.3755)" class="st23 st41 st42">Infrastructure</text>
	</g>
	
		<linearGradient id="SVGID_2_" gradientUnits="userSpaceOnUse" x1="127.8357" y1="724.2007" x2="830.4871" y2="367.2933" gradientTransform="matrix(0.9863 0 0 1.1211 -62.5995 -277.4501)">
		<stop  offset="0" style="stop-color:#17C9C0"/>
		<stop  offset="0.1678" style="stop-color:#00A9D7"/>
		<stop  offset="0.5644" style="stop-color:#1CD0BB"/>
		<stop  offset="1" style="stop-color:#0FBEC8"/>
	</linearGradient>
	
		<rect x="1.481" y="276.619" style="display:inline;fill:none;stroke:url(#SVGID_2_);stroke-width:2.1384;stroke-miterlimit:10;" width="817.034" height="115.506"/>
	<g class="st1">
		<g>
			<path class="st44" d="M468.665,306.376c-8.516,1.595-14.964,9.056-14.964,18.034c0,2.704,0.585,5.271,1.634,7.582
				c-5.484,0.177-9.875,4.678-9.875,10.206c0,5.64,4.572,10.212,10.212,10.212c0.065,0,51.011-0.062,51.782-0.062
				c7.029-0.939,12.458-7.029,12.458-14.315c0-4.151-1.771-7.879-4.585-10.502"/>
		</g>
		<path class="st44" d="M488.72,316.681c1.783-1.777,4.243-2.876,6.959-2.876c5.445,0,9.859,4.414,9.859,9.859
			c3.786,0,7.22,1.474,9.787,3.866c2.775-2.043,4.585-5.335,4.585-9.033c0-6.154-4.989-11.14-11.144-11.14
			c0-4.222-3.422-7.644-7.644-7.644c-2.106,0-4.013,0.852-5.396,2.23c-2.262-4.868-7.195-8.243-12.916-8.243
			c-7.335,0-13.369,5.548-14.146,12.676c1.102-0.207,2.235-0.327,3.397-0.327C479.441,306.049,485.802,310.403,488.72,316.681z"/>
	</g>
	<g class="st1">
		<g>
			<g>
				<path class="st23" d="M434.117,333.088v15.484h-64.452v-15.484H434.117 M434.117,331.088h-64.452c-1.1,0-2,0.9-2,2v15.484
					c0,1.1,0.9,2,2,2h64.452c1.1,0,2-0.9,2-2v-15.484C436.117,331.988,435.217,331.088,434.117,331.088L434.117,331.088z"/>
			</g>
			<g>
				<path class="st38" d="M369.666,310.723c-0.551,0-1-0.449-1-1V294.24c0-0.551,0.449-1,1-1h64.452c0.552,0,1,0.449,1,1v15.483
					c0,0.551-0.448,1-1,1H369.666z"/>
				<path class="st23" d="M434.117,294.24v15.484h-64.452V294.24H434.117 M434.117,292.24h-64.452c-1.1,0-2,0.9-2,2v15.484
					c0,1.1,0.9,2,2,2h64.452c1.1,0,2-0.9,2-2V294.24C436.117,293.14,435.217,292.24,434.117,292.24L434.117,292.24z"/>
			</g>
			<g>
				<path class="st23" d="M434.117,313.664v15.484h-64.452v-15.484H434.117 M434.117,311.664h-64.452c-1.1,0-2,0.9-2,2v15.484
					c0,1.1,0.9,2,2,2h64.452c1.1,0,2-0.9,2-2v-15.484C436.117,312.564,435.217,311.664,434.117,311.664L434.117,311.664z"/>
			</g>
			<g>
				<path class="st23" d="M379.045,300.809c0.617,0,1.12,0.502,1.12,1.12s-0.502,1.12-1.12,1.12s-1.12-0.502-1.12-1.12
					S378.427,300.809,379.045,300.809 M379.045,298.809c-1.723,0-3.12,1.397-3.12,3.12c0,1.723,1.397,3.12,3.12,3.12
					c1.723,0,3.12-1.397,3.12-3.12C382.165,300.206,380.768,298.809,379.045,298.809L379.045,298.809z"/>
			</g>
			<g>
				<path class="st23" d="M379.045,320.309c0.617,0,1.12,0.502,1.12,1.12s-0.502,1.12-1.12,1.12s-1.12-0.502-1.12-1.12
					S378.427,320.309,379.045,320.309 M379.045,318.309c-1.723,0-3.12,1.397-3.12,3.12s1.397,3.12,3.12,3.12
					c1.723,0,3.12-1.397,3.12-3.12S380.768,318.309,379.045,318.309L379.045,318.309z"/>
			</g>
			<g>
				<path class="st23" d="M379.045,339.808c0.617,0,1.12,0.502,1.12,1.12s-0.502,1.12-1.12,1.12s-1.12-0.502-1.12-1.12
					S378.427,339.808,379.045,339.808 M379.045,337.808c-1.723,0-3.12,1.397-3.12,3.12s1.397,3.12,3.12,3.12
					c1.723,0,3.12-1.397,3.12-3.12S380.768,337.808,379.045,337.808L379.045,337.808z"/>
			</g>
		</g>
	</g>
	<g class="st1">
		<g>
			<g>
				<path class="st38" d="M319.575,349.571c-0.551,0-1-0.449-1-1v-53.106c0-0.551,0.449-1,1-1h34.107c0.551,0,1,0.449,1,1v53.106
					c0,0.551-0.449,1-1,1H319.575z"/>
				<path class="st23" d="M353.681,295.465v53.107h-34.107v-53.107H353.681 M353.681,293.465h-34.107c-1.105,0-2,0.895-2,2v53.107
					c0,1.105,0.895,2,2,2h34.107c1.105,0,2-0.895,2-2v-53.107C355.681,294.36,354.786,293.465,353.681,293.465L353.681,293.465z"/>
			</g>
		</g>
		<g>
			<path class="st23" d="M336.628,337.734c0.617,0,1.12,0.502,1.12,1.12s-0.502,1.12-1.12,1.12s-1.12-0.502-1.12-1.12
				S336.011,337.734,336.628,337.734 M336.628,335.734c-1.723,0-3.12,1.397-3.12,3.12s1.397,3.12,3.12,3.12s3.12-1.397,3.12-3.12
				S338.351,335.734,336.628,335.734L336.628,335.734z"/>
		</g>
		<g>
			<path class="st23" d="M346.921,302.231v2.74h-20.585v-2.74H346.921 M348.921,300.231h-24.585v6.74h24.585V300.231
				L348.921,300.231z"/>
		</g>
		<g>
			<path class="st23" d="M346.921,310.71v2.74h-20.585v-2.74H346.921 M348.921,308.71h-24.585v6.74h24.585V308.71L348.921,308.71z"
				/>
		</g>
		<g>
			<path class="st23" d="M346.921,318.625v2.74h-20.585v-2.74H346.921 M348.921,316.625h-24.585v6.74h24.585V316.625
				L348.921,316.625z"/>
		</g>
	</g>
	<g class="st1">
		<g>
			<g>
				<g>
					<path class="st23" d="M525.665,29.031v43.737h-44.843V29.031H525.665 M525.759,27.031h-45.03c-1.053,0-1.906,0.853-1.906,1.906
						v43.925c0,1.053,0.853,1.906,1.906,1.906h45.03c1.053,0,1.906-0.853,1.906-1.906V28.938
						C527.665,27.885,526.812,27.031,525.759,27.031L525.759,27.031z"/>
				</g>
				<g>
					<line class="st45" x1="479.99" y1="36.202" x2="526.827" y2="36.202"/>
				</g>
				<path class="st45" d="M484.842,28.426v-5.639c0-1.053,0.853-1.906,1.906-1.906h45.031c1.053,0,1.906,0.853,1.906,1.906v43.925
					c0,1.053-0.853,1.906-1.906,1.906h-4.953"/>
				<line class="st46" x1="484.033" y1="32.064" x2="485.652" y2="32.064"/>
				<line class="st46" x1="489.249" y1="32.064" x2="490.868" y2="32.064"/>
				<line class="st46" x1="494.465" y1="32.064" x2="496.084" y2="32.064"/>
			</g>
			<line class="st45" x1="494.465" y1="37.182" x2="494.465" y2="73.721"/>
			<line class="st45" x1="482.639" y1="41.842" x2="490.908" y2="41.842"/>
			<line class="st45" x1="482.639" y1="46.87" x2="490.908" y2="46.87"/>
			<line class="st45" x1="482.639" y1="51.897" x2="490.908" y2="51.897"/>
			<line class="st45" x1="482.639" y1="56.924" x2="490.908" y2="56.924"/>
			<line class="st45" x1="482.639" y1="61.951" x2="490.908" y2="61.951"/>
			<g>
				<path class="st23" d="M520.105,42.807v6.79h-19.46v-6.79H520.105 M522.105,40.807h-23.46v10.79h23.46V40.807L522.105,40.807z"/>
			</g>
		</g>
	</g>
	<g class="st1">
		<g>
			<g>
				<g>
					<path class="st23" d="M239.219,29.031v43.737h-44.843V29.031H239.219 M239.312,27.031h-45.031
						c-1.053,0-1.906,0.853-1.906,1.906v43.925c0,1.053,0.853,1.906,1.906,1.906h45.031c1.053,0,1.906-0.853,1.906-1.906V28.938
						C241.219,27.885,240.365,27.031,239.312,27.031L239.312,27.031z"/>
				</g>
				<g>
					<line class="st45" x1="193.543" y1="36.202" x2="240.38" y2="36.202"/>
				</g>
				<path class="st45" d="M198.396,28.426v-5.639c0-1.053,0.853-1.906,1.906-1.906h45.031c1.053,0,1.906,0.853,1.906,1.906v43.925
					c0,1.053-0.853,1.906-1.906,1.906h-4.953"/>
				<line class="st46" x1="197.586" y1="32.064" x2="199.205" y2="32.064"/>
				<line class="st46" x1="202.802" y1="32.064" x2="204.421" y2="32.064"/>
				<line class="st46" x1="208.018" y1="32.064" x2="209.637" y2="32.064"/>
			</g>
			<line class="st45" x1="208.018" y1="37.182" x2="208.018" y2="73.721"/>
			<line class="st45" x1="196.192" y1="41.842" x2="204.462" y2="41.842"/>
			<line class="st45" x1="196.192" y1="46.87" x2="204.462" y2="46.87"/>
			<line class="st45" x1="196.192" y1="51.897" x2="204.462" y2="51.897"/>
			<line class="st45" x1="196.192" y1="56.924" x2="204.462" y2="56.924"/>
			<line class="st45" x1="196.192" y1="61.951" x2="204.462" y2="61.951"/>
			<g>
				<path class="st23" d="M233.658,42.807v6.79h-19.46v-6.79H233.658 M235.658,40.807h-23.46v10.79h23.46V40.807L235.658,40.807z"/>
			</g>
		</g>
	</g>
	<g class="st1">
		<g>
			<g>
				<g>
					<path class="st23" d="M776.937,29.031v43.737h-44.843V29.031H776.937 M777.031,27.031h-45.031
						c-1.053,0-1.906,0.853-1.906,1.906v43.925c0,1.053,0.853,1.906,1.906,1.906h45.031c1.053,0,1.906-0.853,1.906-1.906V28.938
						C778.937,27.885,778.084,27.031,777.031,27.031L777.031,27.031z"/>
				</g>
				<g>
					<line class="st45" x1="731.262" y1="36.202" x2="778.099" y2="36.202"/>
				</g>
				<path class="st45" d="M736.114,28.426v-5.639c0-1.053,0.853-1.906,1.906-1.906h45.031c1.053,0,1.906,0.853,1.906,1.906v43.925
					c0,1.053-0.853,1.906-1.906,1.906h-4.953"/>
				<line class="st46" x1="735.305" y1="32.064" x2="736.924" y2="32.064"/>
				<line class="st46" x1="740.521" y1="32.064" x2="742.14" y2="32.064"/>
				<line class="st46" x1="745.737" y1="32.064" x2="747.356" y2="32.064"/>
			</g>
			<line class="st45" x1="745.737" y1="37.182" x2="745.737" y2="73.721"/>
			<line class="st45" x1="733.91" y1="41.842" x2="742.18" y2="41.842"/>
			<line class="st45" x1="733.91" y1="46.87" x2="742.18" y2="46.87"/>
			<line class="st45" x1="733.91" y1="51.897" x2="742.18" y2="51.897"/>
			<line class="st45" x1="733.91" y1="56.924" x2="742.18" y2="56.924"/>
			<line class="st45" x1="733.91" y1="61.951" x2="742.18" y2="61.951"/>
			<g>
				<path class="st23" d="M771.377,42.807v6.79h-19.46v-6.79H771.377 M773.377,40.807h-23.46v10.79h23.46V40.807L773.377,40.807z"/>
			</g>
		</g>
	</g>
</g>
<g id="out">
	<g>
		<rect x="0.483" y="6.775" class="st2" width="268.937" height="83.101"/>
		<rect x="275.691" y="6.775" class="st2" width="268.937" height="83.101"/>
		<rect x="550.905" y="6.775" class="st2" width="268.937" height="83.101"/>
	</g>
	<rect x="0.483" y="185.677" class="st14" width="820" height="83.101"/>
	<g>
		<g>
			<path class="st38" d="M335.591,229.281v-0.026c0-2.552,1.969-4.689,4.754-4.689s4.729,2.111,4.729,4.664v0.025
				c0,2.552-1.969,4.689-4.754,4.689C337.534,233.944,335.591,231.833,335.591,229.281z M343.403,229.281v-0.026
				c0-1.762-1.283-3.226-3.083-3.226c-1.801,0-3.057,1.438-3.057,3.2v0.025c0,1.762,1.282,3.213,3.083,3.213
				S343.403,231.043,343.403,229.281z"/>
			<path class="st38" d="M347.809,224.721h3.576c2.124,0,3.446,1.205,3.446,3.031v0.026c0,2.033-1.632,3.096-3.627,3.096h-1.801
				v2.915h-1.593V224.721z M351.255,229.437c1.205,0,1.956-0.674,1.956-1.619v-0.026c0-1.062-0.764-1.619-1.956-1.619h-1.853v3.265
				H351.255z"/>
			<path class="st38" d="M357.267,224.721h6.723v1.425h-5.13v2.358h4.547v1.425h-4.547v2.436h5.195v1.425h-6.788V224.721z"/>
			<path class="st38" d="M366.751,224.721h4.042c1.14,0,2.034,0.337,2.617,0.907c0.479,0.492,0.751,1.166,0.751,1.956v0.025
				c0,1.49-0.894,2.384-2.15,2.747l2.448,3.433h-1.891l-2.228-3.161h-1.995v3.161h-1.594V224.721z M370.677,229.216
				c1.14,0,1.865-0.596,1.865-1.516v-0.025c0-0.972-0.7-1.503-1.878-1.503h-2.319v3.044H370.677z"/>
			<path class="st38" d="M380.135,224.656h1.477l3.99,9.133h-1.685l-0.919-2.189h-4.288l-0.933,2.189h-1.632L380.135,224.656z
				 M382.415,230.188l-1.567-3.627l-1.555,3.627H382.415z"/>
			<path class="st38" d="M389.022,226.197h-2.875v-1.477h7.358v1.477h-2.876v7.592h-1.606V226.197z"/>
			<path class="st38" d="M396.084,224.721h1.594v9.068h-1.594V224.721z"/>
			<path class="st38" d="M400.904,224.721h1.477l4.857,6.271v-6.271h1.568v9.068h-1.334l-5-6.451v6.451h-1.567V224.721z"/>
			<path class="st38" d="M411.541,229.281v-0.026c0-2.539,1.943-4.689,4.677-4.689c1.58,0,2.552,0.44,3.484,1.23l-1.011,1.205
				c-0.699-0.596-1.386-0.972-2.539-0.972c-1.671,0-2.94,1.464-2.94,3.2v0.025c0,1.865,1.231,3.238,3.083,3.238
				c0.855,0,1.633-0.271,2.189-0.687v-1.696h-2.318v-1.387h3.86v3.809c-0.894,0.765-2.177,1.412-3.783,1.412
				C413.406,233.944,411.541,231.924,411.541,229.281z"/>
			<path class="st38" d="M426.984,232.468l0.959-1.14c0.868,0.751,1.749,1.179,2.863,1.179c0.984,0,1.606-0.467,1.606-1.141v-0.025
				c0-0.647-0.363-0.998-2.047-1.387c-1.931-0.466-3.019-1.036-3.019-2.707v-0.026c0-1.555,1.295-2.63,3.096-2.63
				c1.322,0,2.371,0.402,3.291,1.141l-0.855,1.204c-0.816-0.608-1.632-0.933-2.461-0.933c-0.933,0-1.477,0.479-1.477,1.075v0.026
				c0,0.699,0.414,1.011,2.163,1.425c1.917,0.467,2.901,1.153,2.901,2.656v0.025c0,1.697-1.334,2.708-3.238,2.708
				C429.381,233.919,428.073,233.439,426.984,232.468z"/>
			<path class="st38" d="M438.969,230.214l-3.602-5.493h1.892l2.526,4.003l2.565-4.003h1.826l-3.602,5.454v3.614h-1.606V230.214z"/>
			<path class="st38" d="M445.318,232.468l0.959-1.14c0.867,0.751,1.748,1.179,2.862,1.179c0.985,0,1.606-0.467,1.606-1.141v-0.025
				c0-0.647-0.362-0.998-2.047-1.387c-1.93-0.466-3.019-1.036-3.019-2.707v-0.026c0-1.555,1.296-2.63,3.097-2.63
				c1.321,0,2.371,0.402,3.29,1.141l-0.854,1.204c-0.816-0.608-1.633-0.933-2.462-0.933c-0.933,0-1.477,0.479-1.477,1.075v0.026
				c0,0.699,0.415,1.011,2.163,1.425c1.918,0.467,2.902,1.153,2.902,2.656v0.025c0,1.697-1.334,2.708-3.238,2.708
				C447.715,233.919,446.406,233.439,445.318,232.468z"/>
			<path class="st38" d="M457.057,226.197h-2.877v-1.477h7.359v1.477h-2.877v7.592h-1.605V226.197z"/>
			<path class="st38" d="M464.027,224.721h6.723v1.425h-5.13v2.358h4.548v1.425h-4.548v2.436h5.195v1.425h-6.788V224.721z"/>
			<path class="st38" d="M473.512,224.721h1.696l2.76,4.288l2.759-4.288h1.697v9.068h-1.594v-6.503l-2.862,4.274h-0.052
				l-2.838-4.249v6.478h-1.566V224.721z"/>
		</g>
	</g>
	<rect x="0.483" y="95.891" class="st18" width="820" height="83.101"/>
	<g>
		<g>
			<path class="st38" d="M335.753,139.495v-0.026c0-2.578,1.93-4.689,4.676-4.689c1.671,0,2.682,0.583,3.55,1.412l-1.023,1.179
				c-0.726-0.674-1.503-1.127-2.539-1.127c-1.723,0-2.992,1.425-2.992,3.2v0.025c0,1.774,1.256,3.213,2.992,3.213
				c1.114,0,1.827-0.44,2.604-1.166l1.023,1.036c-0.946,0.984-1.982,1.606-3.679,1.606
				C337.723,144.158,335.753,142.099,335.753,139.495z"/>
			<path class="st38" d="M345.859,139.495v-0.026c0-2.552,1.969-4.689,4.754-4.689c2.785,0,4.728,2.111,4.728,4.664v0.025
				c0,2.552-1.969,4.689-4.754,4.689S345.859,142.047,345.859,139.495z M353.671,139.495v-0.026c0-1.762-1.282-3.226-3.083-3.226
				s-3.058,1.438-3.058,3.2v0.025c0,1.762,1.283,3.213,3.083,3.213C352.414,142.682,353.671,141.257,353.671,139.495z"/>
			<path class="st38" d="M358.077,134.935h1.477l4.858,6.271v-6.271h1.567v9.068h-1.334l-5-6.451v6.451h-1.567V134.935z"/>
			<path class="st38" d="M371.344,136.411h-2.875v-1.477h7.358v1.477h-2.876v7.592h-1.606V136.411z"/>
			<path class="st38" d="M380.361,134.87h1.477l3.99,9.133h-1.684l-0.92-2.189h-4.288l-0.933,2.189h-1.632L380.361,134.87z
				 M382.642,140.401l-1.567-3.627l-1.555,3.627H382.642z"/>
			<path class="st38" d="M388.278,134.935h1.594v9.068h-1.594V134.935z"/>
			<path class="st38" d="M393.098,134.935h1.477l4.858,6.271v-6.271H401v9.068h-1.334l-5.001-6.451v6.451h-1.567V134.935z"/>
			<path class="st38" d="M404.137,134.935h6.724v1.425h-5.13v2.358h4.547v1.425h-4.547v2.436h5.195v1.425h-6.788V134.935z"/>
			<path class="st38" d="M413.621,134.935h4.041c1.141,0,2.034,0.337,2.617,0.907c0.479,0.492,0.752,1.166,0.752,1.956v0.025
				c0,1.49-0.895,2.384-2.15,2.747l2.448,3.433h-1.892l-2.229-3.161h-1.995v3.161h-1.593V134.935z M417.546,139.43
				c1.14,0,1.866-0.596,1.866-1.516v-0.025c0-0.972-0.7-1.503-1.879-1.503h-2.319v3.044H417.546z"/>
			<path class="st38" d="M428.481,134.935h6.724v1.425h-5.131v2.358h4.548v1.425h-4.548v2.436h5.195v1.425h-6.788V134.935z"/>
			<path class="st38" d="M437.966,134.935h1.477l4.858,6.271v-6.271h1.567v9.068h-1.335l-5-6.451v6.451h-1.567V134.935z"/>
			<path class="st38" d="M448.603,139.495v-0.026c0-2.539,1.943-4.689,4.677-4.689c1.58,0,2.553,0.44,3.484,1.23l-1.01,1.205
				c-0.699-0.596-1.387-0.972-2.539-0.972c-1.672,0-2.941,1.464-2.941,3.2v0.025c0,1.865,1.231,3.238,3.084,3.238
				c0.854,0,1.632-0.271,2.189-0.687v-1.696h-2.319v-1.387h3.86v3.809c-0.894,0.765-2.176,1.412-3.783,1.412
				C450.469,144.158,448.603,142.138,448.603,139.495z"/>
			<path class="st38" d="M460.056,134.935h1.594v9.068h-1.594V134.935z"/>
			<path class="st38" d="M464.876,134.935h1.477l4.858,6.271v-6.271h1.567v9.068h-1.335l-5-6.451v6.451h-1.567V134.935z"/>
			<path class="st38" d="M475.914,134.935h6.724v1.425h-5.13v2.358h4.547v1.425h-4.547v2.436h5.195v1.425h-6.789V134.935z"/>
		</g>
	</g>
	<g>
		<g>
			<path class="st38" d="M39.543,45.084h1.477l3.99,9.133h-1.684l-0.92-2.189h-4.288l-0.933,2.189h-1.632L39.543,45.084z
				 M41.823,50.615l-1.567-3.627l-1.555,3.627H41.823z"/>
			<path class="st38" d="M47.37,45.148h3.576c2.124,0,3.446,1.205,3.446,3.031v0.026c0,2.033-1.632,3.096-3.627,3.096h-1.801v2.915
				H47.37V45.148z M50.815,49.864c1.205,0,1.956-0.674,1.956-1.619v-0.026c0-1.062-0.764-1.619-1.956-1.619h-1.853v3.265H50.815z"/>
			<path class="st38" d="M56.828,45.148h3.576c2.124,0,3.446,1.205,3.446,3.031v0.026c0,2.033-1.632,3.096-3.627,3.096h-1.801v2.915
				h-1.593V45.148z M60.273,49.864c1.205,0,1.956-0.674,1.956-1.619v-0.026c0-1.062-0.764-1.619-1.956-1.619h-1.853v3.265H60.273z"
				/>
			<path class="st38" d="M66.286,45.148h1.593v7.617h4.768v1.451h-6.36V45.148z"/>
			<path class="st38" d="M75.2,45.148h1.593v9.068H75.2V45.148z"/>
			<path class="st38" d="M79.618,49.709v-0.026c0-2.578,1.93-4.689,4.676-4.689c1.671,0,2.682,0.583,3.55,1.412l-1.023,1.179
				c-0.726-0.674-1.503-1.127-2.539-1.127c-1.723,0-2.992,1.425-2.992,3.2v0.025c0,1.774,1.256,3.213,2.992,3.213
				c1.114,0,1.827-0.44,2.604-1.166l1.023,1.036c-0.946,0.984-1.982,1.606-3.679,1.606C81.587,54.372,79.618,52.312,79.618,49.709z"
				/>
			<path class="st38" d="M93.597,45.084h1.477l3.99,9.133H97.38l-0.92-2.189h-4.288l-0.933,2.189h-1.632L93.597,45.084z
				 M95.877,50.615l-1.567-3.627l-1.555,3.627H95.877z"/>
			<path class="st38" d="M102.485,46.625h-2.876v-1.477h7.358v1.477h-2.876v7.592h-1.606V46.625z"/>
			<path class="st38" d="M109.547,45.148h1.593v9.068h-1.593V45.148z"/>
			<path class="st38" d="M113.965,49.709v-0.026c0-2.552,1.969-4.689,4.754-4.689c2.785,0,4.728,2.111,4.728,4.664v0.025
				c0,2.552-1.969,4.689-4.754,4.689S113.965,52.261,113.965,49.709z M121.776,49.709v-0.026c0-1.762-1.282-3.226-3.083-3.226
				s-3.058,1.438-3.058,3.2v0.025c0,1.762,1.283,3.213,3.083,3.213C120.52,52.896,121.776,51.471,121.776,49.709z"/>
			<path class="st38" d="M126.183,45.148h1.477l4.858,6.271v-6.271h1.568v9.068h-1.335l-5-6.451v6.451h-1.567V45.148z"/>
			<path class="st38" d="M143.051,46.703l-1.632,0.453l-0.337-1.295l2.448-0.777h1.102v9.133h-1.581V46.703z"/>
		</g>
	</g>
	<g>
		<g>
			<path class="st38" d="M326.898,44.086h1.477l3.99,9.133h-1.684l-0.92-2.189h-4.288l-0.933,2.189h-1.632L326.898,44.086z
				 M329.178,49.618l-1.567-3.627l-1.555,3.627H329.178z"/>
			<path class="st38" d="M334.724,44.151h3.576c2.124,0,3.446,1.205,3.446,3.031v0.026c0,2.033-1.632,3.096-3.627,3.096h-1.801
				v2.915h-1.593V44.151z M338.17,48.867c1.205,0,1.956-0.674,1.956-1.619v-0.026c0-1.062-0.764-1.619-1.956-1.619h-1.853v3.265
				H338.17z"/>
			<path class="st38" d="M344.182,44.151h3.576c2.124,0,3.446,1.205,3.446,3.031v0.026c0,2.033-1.632,3.096-3.627,3.096h-1.801
				v2.915h-1.593V44.151z M347.628,48.867c1.205,0,1.956-0.674,1.956-1.619v-0.026c0-1.062-0.764-1.619-1.956-1.619h-1.853v3.265
				H347.628z"/>
			<path class="st38" d="M353.641,44.151h1.593v7.617h4.768v1.451h-6.36V44.151z"/>
			<path class="st38" d="M362.554,44.151h1.593v9.068h-1.593V44.151z"/>
			<path class="st38" d="M366.972,48.711v-0.026c0-2.578,1.93-4.689,4.676-4.689c1.671,0,2.682,0.583,3.55,1.412l-1.023,1.179
				c-0.726-0.674-1.503-1.127-2.539-1.127c-1.723,0-2.992,1.425-2.992,3.2v0.025c0,1.774,1.256,3.213,2.992,3.213
				c1.114,0,1.827-0.44,2.604-1.166l1.023,1.036c-0.946,0.984-1.982,1.606-3.679,1.606
				C368.941,53.375,366.972,51.315,366.972,48.711z"/>
			<path class="st38" d="M380.951,44.086h1.477l3.99,9.133h-1.684l-0.92-2.189h-4.288l-0.933,2.189h-1.632L380.951,44.086z
				 M383.231,49.618l-1.567-3.627l-1.555,3.627H383.231z"/>
			<path class="st38" d="M389.84,45.627h-2.876v-1.477h7.358v1.477h-2.876v7.592h-1.606V45.627z"/>
			<path class="st38" d="M396.901,44.151h1.593v9.068h-1.593V44.151z"/>
			<path class="st38" d="M401.319,48.711v-0.026c0-2.552,1.969-4.689,4.754-4.689c2.785,0,4.728,2.111,4.728,4.664v0.025
				c0,2.552-1.969,4.689-4.754,4.689S401.319,51.263,401.319,48.711z M409.131,48.711v-0.026c0-1.762-1.282-3.226-3.083-3.226
				s-3.058,1.438-3.058,3.2v0.025c0,1.762,1.283,3.213,3.083,3.213C407.874,51.898,409.131,50.473,409.131,48.711z"/>
			<path class="st38" d="M413.537,44.151h1.477l4.857,6.271v-6.271h1.568v9.068h-1.335l-5-6.451v6.451h-1.567V44.151z"/>
			<path class="st38" d="M428.734,51.962l3.122-2.655c1.244-1.062,1.697-1.633,1.697-2.448c0-0.895-0.635-1.412-1.464-1.412
				s-1.398,0.453-2.086,1.36l-1.14-0.895c0.868-1.205,1.723-1.892,3.343-1.892c1.774,0,2.992,1.089,2.992,2.708v0.025
				c0,1.426-0.752,2.203-2.357,3.511l-1.866,1.555h4.314v1.399h-6.556V51.962z"/>
		</g>
	</g>
	<g>
		<g>
			<path class="st38" d="M589.195,44.086h1.477l3.99,9.133h-1.684l-0.92-2.189h-4.288l-0.933,2.189h-1.633L589.195,44.086z
				 M591.476,49.618l-1.567-3.627l-1.555,3.627H591.476z"/>
			<path class="st38" d="M597.021,44.151h3.575c2.125,0,3.446,1.205,3.446,3.031v0.026c0,2.033-1.633,3.096-3.627,3.096h-1.801
				v2.915h-1.594V44.151z M600.467,48.867c1.205,0,1.957-0.674,1.957-1.619v-0.026c0-1.062-0.765-1.619-1.957-1.619h-1.852v3.265
				H600.467z"/>
			<path class="st38" d="M606.479,44.151h3.575c2.125,0,3.446,1.205,3.446,3.031v0.026c0,2.033-1.632,3.096-3.628,3.096h-1.801
				v2.915h-1.593V44.151z M609.926,48.867c1.204,0,1.956-0.674,1.956-1.619v-0.026c0-1.062-0.765-1.619-1.956-1.619h-1.854v3.265
				H609.926z"/>
			<path class="st38" d="M615.938,44.151h1.594v7.617h4.768v1.451h-6.361V44.151z"/>
			<path class="st38" d="M624.852,44.151h1.594v9.068h-1.594V44.151z"/>
			<path class="st38" d="M629.27,48.711v-0.026c0-2.578,1.93-4.689,4.677-4.689c1.671,0,2.682,0.583,3.55,1.412l-1.023,1.179
				c-0.726-0.674-1.503-1.127-2.539-1.127c-1.724,0-2.993,1.425-2.993,3.2v0.025c0,1.774,1.257,3.213,2.993,3.213
				c1.113,0,1.826-0.44,2.604-1.166l1.023,1.036c-0.945,0.984-1.982,1.606-3.68,1.606C631.238,53.375,629.27,51.315,629.27,48.711z"
				/>
			<path class="st38" d="M643.249,44.086h1.477l3.99,9.133h-1.685l-0.92-2.189h-4.287l-0.934,2.189h-1.632L643.249,44.086z
				 M645.529,49.618l-1.568-3.627l-1.555,3.627H645.529z"/>
			<path class="st38" d="M652.137,45.627h-2.875v-1.477h7.357v1.477h-2.876v7.592h-1.606V45.627z"/>
			<path class="st38" d="M659.198,44.151h1.594v9.068h-1.594V44.151z"/>
			<path class="st38" d="M663.617,48.711v-0.026c0-2.552,1.969-4.689,4.754-4.689s4.729,2.111,4.729,4.664v0.025
				c0,2.552-1.969,4.689-4.754,4.689C665.56,53.375,663.617,51.263,663.617,48.711z M671.428,48.711v-0.026
				c0-1.762-1.282-3.226-3.082-3.226c-1.801,0-3.058,1.438-3.058,3.2v0.025c0,1.762,1.282,3.213,3.083,3.213
				S671.428,50.473,671.428,48.711z"/>
			<path class="st38" d="M675.834,44.151h1.477l4.858,6.271v-6.271h1.567v9.068h-1.334l-5.001-6.451v6.451h-1.567V44.151z"/>
			<path class="st38" d="M691.382,46.379h1.567v1.049c0.44-0.635,1.075-1.191,2.138-1.191c1.542,0,2.436,1.036,2.436,2.616v4.366
				h-1.567v-3.887c0-1.062-0.531-1.671-1.464-1.671c-0.907,0-1.542,0.635-1.542,1.697v3.86h-1.567V46.379z"/>
		</g>
	</g>
	<g>
		<g>
			<path class="st23" d="M332.436,365.875h2.925v10.5h-2.925V365.875z"/>
			<path class="st23" d="M338.211,365.875h2.715l4.32,5.55v-5.55h2.88v10.5h-2.55l-4.485-5.76v5.76h-2.88V365.875z"/>
			<path class="st23" d="M350.916,365.875h8.399v2.551h-5.49v1.784h4.965v2.415h-4.965v3.75h-2.91V365.875z"/>
			<path class="st23" d="M361.565,365.875h4.965c1.605,0,2.715,0.421,3.42,1.141c0.615,0.6,0.93,1.41,0.93,2.444v0.03
				c0,1.604-0.855,2.67-2.16,3.225l2.505,3.66h-3.36l-2.115-3.18h-1.275v3.18h-2.91V365.875z M366.396,370.916
				c0.99,0,1.56-0.479,1.56-1.245v-0.029c0-0.825-0.6-1.245-1.575-1.245h-1.905v2.52H366.396z"/>
			<path class="st23" d="M376.716,365.801h2.805l4.47,10.574h-3.12l-0.765-1.875h-4.05l-0.75,1.875h-3.06L376.716,365.801z
				 M379.266,372.236l-1.17-2.985l-1.185,2.985H379.266z"/>
			<path class="st23" d="M384.996,374.816l1.62-1.936c1.035,0.825,2.19,1.26,3.405,1.26c0.78,0,1.2-0.27,1.2-0.72v-0.03
				c0-0.435-0.345-0.675-1.77-1.005c-2.235-0.51-3.96-1.14-3.96-3.3v-0.029c0-1.95,1.545-3.36,4.065-3.36
				c1.785,0,3.18,0.48,4.32,1.396l-1.455,2.055c-0.96-0.675-2.01-1.035-2.94-1.035c-0.705,0-1.05,0.3-1.05,0.675v0.03
				c0,0.479,0.36,0.689,1.815,1.02c2.415,0.525,3.915,1.306,3.915,3.271v0.029c0,2.146-1.694,3.42-4.245,3.42
				C388.056,376.555,386.286,375.97,384.996,374.816z"/>
			<path class="st23" d="M398.766,368.426h-3.149v-2.551h9.209v2.551h-3.15v7.949h-2.91V368.426z"/>
			<path class="st23" d="M407.031,365.875h4.965c1.604,0,2.715,0.421,3.42,1.141c0.614,0.6,0.93,1.41,0.93,2.444v0.03
				c0,1.604-0.855,2.67-2.16,3.225l2.505,3.66h-3.36l-2.114-3.18h-1.275v3.18h-2.91V365.875z M411.86,370.916
				c0.99,0,1.56-0.479,1.56-1.245v-0.029c0-0.825-0.6-1.245-1.574-1.245h-1.905v2.52H411.86z"/>
			<path class="st23" d="M418.61,371.771v-5.896h2.955v5.835c0,1.516,0.765,2.235,1.935,2.235s1.936-0.69,1.936-2.16v-5.91h2.955
				v5.82c0,3.39-1.936,4.875-4.92,4.875C420.485,376.571,418.61,375.055,418.61,371.771z"/>
			<path class="st23" d="M430.686,371.156v-0.03c0-3.06,2.355-5.46,5.535-5.46c2.145,0,3.524,0.9,4.455,2.19l-2.19,1.694
				c-0.6-0.749-1.29-1.229-2.295-1.229c-1.47,0-2.505,1.245-2.505,2.774v0.03c0,1.575,1.035,2.805,2.505,2.805
				c1.095,0,1.74-0.51,2.37-1.274l2.189,1.56c-0.99,1.365-2.324,2.37-4.649,2.37C433.101,376.585,430.686,374.291,430.686,371.156z"
				/>
			<path class="st23" d="M445.49,368.426h-3.149v-2.551h9.21v2.551h-3.15v7.949h-2.91V368.426z"/>
			<path class="st23" d="M453.62,371.771v-5.896h2.955v5.835c0,1.516,0.765,2.235,1.935,2.235s1.936-0.69,1.936-2.16v-5.91h2.955
				v5.82c0,3.39-1.936,4.875-4.92,4.875C455.495,376.571,453.62,375.055,453.62,371.771z"/>
			<path class="st23" d="M466.055,365.875h4.965c1.605,0,2.715,0.421,3.42,1.141c0.615,0.6,0.931,1.41,0.931,2.444v0.03
				c0,1.604-0.855,2.67-2.16,3.225l2.505,3.66h-3.359l-2.115-3.18h-1.275v3.18h-2.91V365.875z M470.885,370.916
				c0.99,0,1.561-0.479,1.561-1.245v-0.029c0-0.825-0.601-1.245-1.575-1.245h-1.905v2.52H470.885z"/>
			<path class="st23" d="M477.771,365.875h8.444v2.476h-5.564v1.59h5.039v2.295h-5.039v1.665h5.64v2.475h-8.52V365.875z"/>
		</g>
	</g>
	
		<linearGradient id="SVGID_4_" gradientUnits="userSpaceOnUse" x1="127.8705" y1="724.183" x2="830.4521" y2="367.3111" gradientTransform="matrix(0.9863 0 0 1.1211 -62.5995 -277.4501)">
		<stop  offset="0" style="stop-color:#17C9C0"/>
		<stop  offset="0.1678" style="stop-color:#00A9D7"/>
		<stop  offset="0.5644" style="stop-color:#1CD0BB"/>
		<stop  offset="1" style="stop-color:#0FBEC8"/>
	</linearGradient>
	<path style="fill:url(#SVGID_4_);" d="M819.584,393.194H0.412V275.549h819.172V393.194z M2.551,391.055h814.895V277.688H2.551
		V391.055z"/>
	<g>
		<g>
			<g>
				<path class="st38" d="M468.665,306.376c-8.516,1.595-14.964,9.056-14.964,18.034c0,2.704,0.585,5.271,1.634,7.582
					c-5.484,0.177-9.875,4.678-9.875,10.206c0,5.64,4.572,10.212,10.212,10.212c0.065,0,51.011-0.062,51.782-0.062
					c7.029-0.939,12.458-7.029,12.458-14.315c0-4.151-1.771-7.879-4.585-10.502"/>
				<path class="st23" d="M455.671,353.409c-6.183,0-11.212-5.03-11.212-11.212c0-5.609,4.045-10.228,9.438-11.073
					c-0.795-2.143-1.196-4.396-1.196-6.714c0-9.307,6.637-17.305,15.781-19.017l0.367,1.966
					c-8.198,1.535-14.148,8.706-14.148,17.051c0,2.499,0.52,4.91,1.545,7.169c0.138,0.304,0.114,0.657-0.062,0.941
					c-0.177,0.284-0.483,0.461-0.817,0.472c-4.995,0.162-8.907,4.205-8.907,9.206c0,5.08,4.133,9.212,9.212,9.212l6.584-0.008
					c13.547-0.017,43.418-0.052,45.129-0.054c6.576-0.912,11.526-6.624,11.526-13.315c0-3.737-1.516-7.207-4.268-9.77l1.363-1.464
					c3.162,2.946,4.904,6.936,4.904,11.234c0,7.71-5.729,14.291-13.325,15.306c-0.044,0.006-0.089,0.009-0.133,0.009
					c-0.598,0-31.383,0.037-45.195,0.054L455.671,353.409z"/>
			</g>
		</g>
		<g>
			<path class="st38" d="M488.72,316.681c1.783-1.777,4.243-2.876,6.959-2.876c5.445,0,9.859,4.414,9.859,9.859
				c3.786,0,7.22,1.474,9.787,3.866c2.775-2.043,4.585-5.335,4.585-9.033c0-6.154-4.989-11.14-11.144-11.14
				c0-4.222-3.422-7.644-7.644-7.644c-2.106,0-4.013,0.852-5.396,2.23c-2.262-4.868-7.195-8.243-12.916-8.243
				c-7.335,0-13.369,5.548-14.146,12.676c1.102-0.207,2.235-0.327,3.397-0.327C479.441,306.049,485.802,310.403,488.72,316.681z"/>
			<path class="st23" d="M515.324,328.531c-0.246,0-0.491-0.09-0.682-0.269c-2.489-2.32-5.723-3.598-9.105-3.598
				c-0.553,0-1-0.448-1-1c0-4.885-3.974-8.859-8.858-8.859c-2.36,0-4.581,0.917-6.253,2.584c-0.231,0.23-0.563,0.335-0.881,0.276
				c-0.321-0.057-0.595-0.267-0.732-0.563c-2.838-6.107-9.021-10.053-15.751-10.053c-1.036,0-2.117,0.104-3.212,0.31
				c-0.312,0.059-0.632-0.034-0.864-0.249c-0.232-0.215-0.349-0.528-0.314-0.842c0.844-7.735,7.353-13.568,15.141-13.568
				c5.471,0,10.528,2.971,13.224,7.667c1.47-1.074,3.234-1.653,5.088-1.653c4.44,0,8.109,3.366,8.59,7.681
				c6.256,0.484,11.197,5.728,11.197,12.104c0,3.859-1.866,7.537-4.993,9.838C515.74,328.466,515.532,328.531,515.324,328.531z
				 M506.494,322.694c3.254,0.202,6.345,1.434,8.862,3.532c2.238-1.935,3.554-4.769,3.554-7.729c0-5.591-4.551-10.14-10.144-10.14
				c-0.553,0-1-0.448-1-1c0-3.664-2.98-6.644-6.644-6.644c-1.771,0-3.437,0.688-4.69,1.938c-0.231,0.231-0.565,0.335-0.881,0.276
				c-0.321-0.057-0.595-0.267-0.732-0.563c-2.163-4.656-6.877-7.665-12.008-7.665c-6.32,0-11.671,4.422-12.945,10.481
				c0.744-0.087,1.479-0.132,2.195-0.132c7.062,0,13.584,3.896,16.966,10.03c1.896-1.474,4.213-2.273,6.651-2.273
				C501.339,312.806,506.002,317.16,506.494,322.694z"/>
		</g>
	</g>
	<g>
		<g>
			<path class="st23" d="M434.117,333.088v15.484h-64.452v-15.484H434.117 M434.117,331.088h-64.452c-1.1,0-2,0.9-2,2v15.484
				c0,1.1,0.9,2,2,2h64.452c1.1,0,2-0.9,2-2v-15.484C436.117,331.988,435.217,331.088,434.117,331.088L434.117,331.088z"/>
			<g>
				<path class="st38" d="M434.117,311.724l-64.452,0c-1.1,0-2-0.9-2-2V294.24c0-1.1,0.9-2,2-2h64.452c1.1,0,2,0.9,2,2v15.484
					C436.117,310.824,435.217,311.724,434.117,311.724z"/>
				<path class="st23" d="M434.117,294.24v15.484l-64.452,0V294.24H434.117 M434.117,292.24h-64.452c-1.1,0-2,0.9-2,2v15.484
					c0,1.1,0.9,2,2,2l64.452,0c1.1,0,2-0.9,2-2V294.24C436.117,293.14,435.217,292.24,434.117,292.24L434.117,292.24z"/>
			</g>
			<path class="st23" d="M434.117,313.664v15.484h-64.452v-15.484H434.117 M434.117,311.664h-64.452c-1.1,0-2,0.9-2,2v15.484
				c0,1.1,0.9,2,2,2h64.452c1.1,0,2-0.9,2-2v-15.484C436.117,312.564,435.217,311.664,434.117,311.664L434.117,311.664z"/>
			<path class="st23" d="M379.045,300.809c0.617,0,1.12,0.502,1.12,1.12s-0.502,1.12-1.12,1.12s-1.12-0.502-1.12-1.12
				S378.427,300.809,379.045,300.809 M379.045,298.809c-1.723,0-3.12,1.397-3.12,3.12s1.397,3.12,3.12,3.12
				c1.723,0,3.12-1.397,3.12-3.12S380.768,298.809,379.045,298.809L379.045,298.809z"/>
			<path class="st23" d="M379.045,320.309c0.617,0,1.12,0.502,1.12,1.12s-0.502,1.12-1.12,1.12s-1.12-0.502-1.12-1.12
				S378.427,320.309,379.045,320.309 M379.045,318.309c-1.723,0-3.12,1.397-3.12,3.12c0,1.723,1.397,3.12,3.12,3.12
				c1.723,0,3.12-1.397,3.12-3.12C382.165,319.705,380.768,318.309,379.045,318.309L379.045,318.309z"/>
			<path class="st23" d="M379.045,339.808c0.617,0,1.12,0.502,1.12,1.12s-0.502,1.12-1.12,1.12s-1.12-0.502-1.12-1.12
				S378.427,339.808,379.045,339.808 M379.045,337.808c-1.723,0-3.12,1.397-3.12,3.12s1.397,3.12,3.12,3.12
				c1.723,0,3.12-1.397,3.12-3.12S380.768,337.808,379.045,337.808L379.045,337.808z"/>
		</g>
	</g>
	<g>
		<g>
			<g>
				<path class="st38" d="M353.681,350.571h-34.107c-1.105,0-2-0.895-2-2v-53.107c0-1.105,0.895-2,2-2h34.107c1.105,0,2,0.895,2,2
					v53.107C355.681,349.676,354.786,350.571,353.681,350.571z"/>
				<path class="st23" d="M353.681,295.465v53.107h-34.107v-53.107H353.681 M353.681,293.465h-34.107c-1.105,0-2,0.895-2,2v53.107
					c0,1.105,0.895,2,2,2h34.107c1.105,0,2-0.895,2-2v-53.107C355.681,294.36,354.786,293.465,353.681,293.465L353.681,293.465z"/>
			</g>
		</g>
		<path class="st23" d="M336.628,337.734c0.617,0,1.12,0.502,1.12,1.12s-0.502,1.12-1.12,1.12s-1.12-0.502-1.12-1.12
			S336.011,337.734,336.628,337.734 M336.628,335.734c-1.723,0-3.12,1.397-3.12,3.12s1.397,3.12,3.12,3.12s3.12-1.397,3.12-3.12
			S338.351,335.734,336.628,335.734L336.628,335.734z"/>
		<path class="st23" d="M346.921,302.231v2.74h-20.585v-2.74H346.921 M348.921,300.231h-24.585v6.74h24.585V300.231L348.921,300.231
			z"/>
		<path class="st23" d="M346.921,310.71v2.74h-20.585v-2.74H346.921 M348.921,308.71h-24.585v6.74h24.585V308.71L348.921,308.71z"/>
		<path class="st23" d="M346.921,318.625v2.74h-20.585v-2.74H346.921 M348.921,316.625h-24.585v6.74h24.585V316.625L348.921,316.625
			z"/>
	</g>
	<g>
		<g>
			<g>
				<path class="st23" d="M525.666,29.031v43.737h-44.843V29.031H525.666 M525.759,27.031h-45.031c-1.053,0-1.906,0.853-1.906,1.906
					v43.925c0,1.053,0.853,1.906,1.906,1.906h45.031c1.053,0,1.906-0.853,1.906-1.906V28.938
					C527.666,27.885,526.812,27.031,525.759,27.031L525.759,27.031z"/>
				<rect x="479.989" y="35.202" class="st23" width="46.838" height="2"/>
				<path class="st23" d="M531.779,69.618h-4.953v-2h4.953c0.5,0,0.906-0.407,0.906-0.906V22.787c0-0.5-0.406-0.906-0.906-0.906
					h-45.03c-0.5,0-0.906,0.406-0.906,0.906v5.64h-2v-5.64c0-1.602,1.304-2.906,2.906-2.906h45.03c1.603,0,2.906,1.304,2.906,2.906
					v43.925C534.686,68.314,533.382,69.618,531.779,69.618z"/>
				<path class="st23" d="M485.651,33.064h-1.618c-0.553,0-1-0.448-1-1s0.447-1,1-1h1.618c0.553,0,1,0.448,1,1
					S486.204,33.064,485.651,33.064z"/>
				<path class="st23" d="M490.867,33.064h-1.618c-0.553,0-1-0.448-1-1s0.447-1,1-1h1.618c0.553,0,1,0.448,1,1
					S491.42,33.064,490.867,33.064z"/>
				<path class="st23" d="M496.084,33.064h-1.618c-0.553,0-1-0.448-1-1s0.447-1,1-1h1.618c0.553,0,1,0.448,1,1
					S496.637,33.064,496.084,33.064z"/>
			</g>
			<rect x="493.466" y="37.183" class="st23" width="2" height="36.539"/>
			<rect x="482.639" y="40.842" class="st23" width="8.27" height="2"/>
			<rect x="482.639" y="45.87" class="st23" width="8.27" height="2"/>
			<rect x="482.639" y="50.896" class="st23" width="8.27" height="2"/>
			<rect x="482.639" y="55.924" class="st23" width="8.27" height="2"/>
			<rect x="482.639" y="60.951" class="st23" width="8.27" height="2"/>
			<path class="st23" d="M520.105,42.807v6.79h-19.46v-6.79H520.105 M522.105,40.807h-23.46v10.79h23.46V40.807L522.105,40.807z"/>
		</g>
	</g>
	<g>
		<g>
			<g>
				<path class="st23" d="M239.219,29.031v43.737h-44.843V29.031H239.219 M239.312,27.031h-45.031c-1.053,0-1.906,0.853-1.906,1.906
					v43.925c0,1.053,0.853,1.906,1.906,1.906h45.031c1.053,0,1.906-0.853,1.906-1.906V28.938
					C241.219,27.885,240.365,27.031,239.312,27.031L239.312,27.031z"/>
				<rect x="193.542" y="35.202" class="st23" width="46.837" height="2"/>
				<path class="st23" d="M245.332,69.618h-4.953v-2h4.953c0.5,0,0.906-0.407,0.906-0.906V22.787c0-0.5-0.407-0.906-0.906-0.906
					h-45.03c-0.5,0-0.906,0.406-0.906,0.906v5.64h-2v-5.64c0-1.602,1.304-2.906,2.906-2.906h45.03c1.603,0,2.906,1.304,2.906,2.906
					v43.925C248.238,68.314,246.935,69.618,245.332,69.618z"/>
				<path class="st23" d="M199.205,33.064h-1.618c-0.552,0-1-0.448-1-1s0.448-1,1-1h1.618c0.552,0,1,0.448,1,1
					S199.757,33.064,199.205,33.064z"/>
				<path class="st23" d="M204.42,33.064h-1.618c-0.552,0-1-0.448-1-1s0.448-1,1-1h1.618c0.552,0,1,0.448,1,1
					S204.973,33.064,204.42,33.064z"/>
				<path class="st23" d="M209.637,33.064h-1.618c-0.552,0-1-0.448-1-1s0.448-1,1-1h1.618c0.552,0,1,0.448,1,1
					S210.189,33.064,209.637,33.064z"/>
			</g>
			<rect x="207.019" y="37.183" class="st23" width="2" height="36.539"/>
			<rect x="196.191" y="40.842" class="st23" width="8.27" height="2"/>
			<rect x="196.191" y="45.87" class="st23" width="8.27" height="2"/>
			<rect x="196.191" y="50.896" class="st23" width="8.27" height="2"/>
			<rect x="196.191" y="55.924" class="st23" width="8.27" height="2"/>
			<rect x="196.191" y="60.951" class="st23" width="8.27" height="2"/>
			<path class="st23" d="M233.658,42.807v6.79h-19.46v-6.79H233.658 M235.658,40.807h-23.46v10.79h23.46V40.807L235.658,40.807z"/>
		</g>
	</g>
	<g>
		<g>
			<g>
				<path class="st23" d="M776.937,29.031v43.737h-44.843V29.031H776.937 M777.031,27.031h-45.031c-1.053,0-1.906,0.853-1.906,1.906
					v43.925c0,1.053,0.853,1.906,1.906,1.906h45.031c1.053,0,1.906-0.853,1.906-1.906V28.938
					C778.937,27.885,778.084,27.031,777.031,27.031L777.031,27.031z"/>
				<rect x="731.262" y="35.202" class="st23" width="46.837" height="2"/>
				<path class="st23" d="M783.051,69.618h-4.952v-2h4.952c0.5,0,0.906-0.407,0.906-0.906V22.787c0-0.5-0.406-0.906-0.906-0.906
					h-45.03c-0.5,0-0.906,0.406-0.906,0.906v5.64h-2v-5.64c0-1.602,1.304-2.906,2.906-2.906h45.03c1.603,0,2.906,1.304,2.906,2.906
					v43.925C785.957,68.314,784.653,69.618,783.051,69.618z"/>
				<path class="st23" d="M736.924,33.064h-1.618c-0.553,0-1-0.448-1-1s0.447-1,1-1h1.618c0.553,0,1,0.448,1,1
					S737.477,33.064,736.924,33.064z"/>
				<path class="st23" d="M742.14,33.064h-1.618c-0.553,0-1-0.448-1-1s0.447-1,1-1h1.618c0.553,0,1,0.448,1,1
					S742.692,33.064,742.14,33.064z"/>
				<path class="st23" d="M747.355,33.064h-1.618c-0.553,0-1-0.448-1-1s0.447-1,1-1h1.618c0.553,0,1,0.448,1,1
					S747.908,33.064,747.355,33.064z"/>
			</g>
			<rect x="744.737" y="37.183" class="st23" width="2" height="36.539"/>
			<rect x="733.91" y="40.842" class="st23" width="8.271" height="2"/>
			<rect x="733.91" y="45.87" class="st23" width="8.271" height="2"/>
			<rect x="733.91" y="50.896" class="st23" width="8.271" height="2"/>
			<rect x="733.91" y="55.924" class="st23" width="8.271" height="2"/>
			<rect x="733.91" y="60.951" class="st23" width="8.271" height="2"/>
			<path class="st23" d="M771.377,42.807v6.79h-19.46v-6.79H771.377 M773.377,40.807h-23.46v10.79h23.46V40.807L773.377,40.807z"/>
		</g>
	</g>
</g>
</svg>
